<?xml version="1.0" encoding="UTF-8" standalone="no"?>
<!-- Created with Inkscape (http://www.inkscape.org/) -->

<svg
   xmlns:dc="http://purl.org/dc/elements/1.1/"
   xmlns:cc="http://creativecommons.org/ns#"
   xmlns:rdf="http://www.w3.org/1999/02/22-rdf-syntax-ns#"
   xmlns:svg="http://www.w3.org/2000/svg"
   xmlns="http://www.w3.org/2000/svg"
   xmlns:sodipodi="http://sodipodi.sourceforge.net/DTD/sodipodi-0.dtd"
   xmlns:inkscape="http://www.inkscape.org/namespaces/inkscape"
   width="12mm"
   height="12mm"
   viewBox="0 0 42.519685 42.519685"
   id="svg2"
   version="1.1"
   inkscape:version="0.91 r13725"
   sodipodi:docname="formacion-complementaria.svg">
  <defs
     id="defs4" />
  <sodipodi:namedview
     id="base"
     pagecolor="#ffffff"
     bordercolor="#666666"
     borderopacity="1.0"
     inkscape:pageopacity="0.0"
     inkscape:pageshadow="2"
     inkscape:zoom="15.839192"
     inkscape:cx="18.091475"
     inkscape:cy="29.721004"
     inkscape:document-units="px"
     inkscape:current-layer="layer1"
     showgrid="false"
     inkscape:window-width="1366"
     inkscape:window-height="705"
     inkscape:window-x="-8"
     inkscape:window-y="-8"
     inkscape:window-maximized="1"
     objecttolerance="1"
     gridtolerance="1"
     guidetolerance="1" />
  <metadata
     id="metadata7">
    <rdf:RDF>
      <cc:Work
         rdf:about="">
        <dc:format>image/svg+xml</dc:format>
        <dc:type
           rdf:resource="http://purl.org/dc/dcmitype/StillImage" />
        <dc:title></dc:title>
      </cc:Work>
    </rdf:RDF>
  </metadata>
  <g
     inkscape:label="Capa 1"
     inkscape:groupmode="layer"
     id="layer1"
     transform="translate(0,-1009.8425)">
    <g
       transform="translate(0.36448175,-0.41187191)"
       id="layer1-0"
       inkscape:label="Capa 1">
      <path
         style="fill:#252928;fill-opacity:1;fill-rule:nonzero;stroke:none"
         d="M 21.361328 0.58984375 C 9.9825782 0.58984375 0.7578125 9.8114065 0.7578125 21.191406 C 0.7578125 32.568906 9.9813282 41.794922 21.361328 41.794922 C 32.738828 41.794922 41.962891 32.566406 41.962891 21.191406 C 41.962891 9.8114064 32.740078 0.58984375 21.361328 0.58984375 z M 21.947266 7.3691406 C 29.510667 7.2521406 35.963904 14.880934 31.0625 22.677734 C 29.992048 24.380334 28.644776 25.653903 29.117188 27.158203 C 28.284793 31.651103 22.573784 35.015625 21.490234 35.015625 C 21.329806 35.015625 20.718419 34.001519 20.132812 32.761719 C 19.250401 30.892719 18.927098 30.267969 16.507812 29.980469 C 15.334357 29.876169 12.628547 30.567428 12.357422 29.298828 C 11.901642 27.166328 12.629482 26.233534 11.818359 24.427734 C 11.590713 23.920934 9.7570884 24.041872 9.6875 22.951172 C 9.631986 22.081072 10.715167 21.216016 11.232422 20.228516 C 11.661884 19.408616 11.600752 18.4411 11.595703 16.375 C 11.587603 13.0526 11.978503 12.411456 14.394531 10.347656 C 16.783193 8.3071566 19.426144 7.4144406 21.947266 7.3691406 z M 18.804688 9.7050781 L 18.804688 9.7109375 L 18.572266 10.095703 L 18.558594 10.095703 C 18.438824 10.095703 18.318265 10.095328 18.199219 10.111328 L 17.945312 9.734375 C 17.657758 9.777375 17.377138 9.8560969 17.111328 9.9667969 L 17.121094 10.408203 C 17.0106 10.462203 16.90281 10.524797 16.800781 10.591797 L 16.382812 10.384766 C 16.155822 10.554766 15.952916 10.753256 15.78125 10.972656 L 16.027344 11.353516 C 15.959934 11.451516 15.898881 11.552703 15.845703 11.658203 L 15.375 11.679688 C 15.270703 11.932586 15.202058 12.197297 15.171875 12.466797 L 15.583984 12.681641 L 15.583984 12.695312 C 15.580584 12.808014 15.58587 12.91905 15.597656 13.03125 L 15.195312 13.269531 C 15.240943 13.537031 15.324763 13.797822 15.443359 14.044922 L 15.917969 14.035156 C 15.976129 14.138156 16.041293 14.236931 16.113281 14.332031 L 15.892578 14.720703 C 16.075026 14.932303 16.286228 15.12125 16.521484 15.28125 L 16.931641 15.054688 C 17.036959 15.116687 17.14659 15.173156 17.259766 15.222656 L 17.277344 15.660156 C 17.549283 15.757156 17.833289 15.821609 18.123047 15.849609 L 18.351562 15.466797 L 18.361328 15.466797 C 18.484066 15.466797 18.606482 15.467172 18.728516 15.451172 L 18.982422 15.824219 C 19.26989 15.782219 19.550507 15.70385 19.816406 15.59375 L 19.806641 15.150391 C 19.917088 15.096391 20.022918 15.03535 20.125 14.96875 L 20.542969 15.173828 C 20.769846 15.004128 20.972746 14.806591 21.144531 14.587891 L 20.900391 14.207031 C 20.967801 14.109031 21.028857 14.007844 21.082031 13.902344 L 21.552734 13.880859 C 21.656565 13.627259 21.724453 13.361697 21.753906 13.091797 L 21.34375 12.878906 L 21.34375 12.869141 L 21.345703 12.855469 C 21.348303 12.744469 21.342198 12.631884 21.330078 12.521484 L 21.732422 12.287109 C 21.686952 12.019009 21.603125 11.757566 21.484375 11.509766 L 21.009766 11.519531 C 20.952186 11.416631 20.887775 11.317756 20.816406 11.222656 L 21.035156 10.833984 C 20.85338 10.621884 20.640983 10.434037 20.40625 10.273438 L 19.996094 10.5 C 19.890772 10.438 19.781142 10.379678 19.667969 10.330078 L 19.650391 9.8925781 C 19.378454 9.7955781 19.094441 9.7331781 18.804688 9.7050781 z M 18.535156 10.748047 C 19.707003 10.784047 20.628769 11.696256 20.611328 12.785156 L 20.611328 12.794922 C 20.612628 12.804922 20.613381 12.813266 20.613281 12.822266 C 20.61318 12.832266 20.615234 12.832031 20.615234 12.832031 L 20.613281 12.841797 L 20.613281 12.851562 C 20.612642 12.861562 20.611275 12.869906 20.609375 12.878906 C 20.549065 13.967906 19.560209 14.82735 18.386719 14.78125 C 17.202939 14.74325 16.271836 13.810331 16.3125 12.707031 C 16.35344 11.603731 17.351257 10.728684 18.535156 10.771484 L 18.535156 10.753906 L 18.535156 10.748047 z M 26.113281 11.007812 L 26.111328 11.013672 L 25.806641 11.570312 L 25.787109 11.570312 C 25.616575 11.580312 25.445925 11.588281 25.277344 11.613281 L 24.898438 11.09375 C 24.493153 11.16875 24.099138 11.290937 23.728516 11.460938 L 23.765625 12.091797 C 23.611845 12.173797 23.463395 12.263481 23.322266 12.363281 L 22.71875 12.09375 C 22.406231 12.34585 22.129763 12.633925 21.898438 12.953125 L 22.265625 13.484375 C 22.175925 13.626975 22.096441 13.773481 22.027344 13.925781 L 21.363281 13.978516 C 21.229 14.343516 21.146698 14.722522 21.119141 15.107422 L 21.712891 15.388672 L 21.712891 15.40625 C 21.715291 15.56615 21.730006 15.726366 21.753906 15.884766 L 21.195312 16.240234 C 21.274863 16.618034 21.407581 16.984578 21.589844 17.330078 L 22.263672 17.292969 C 22.351402 17.436269 22.449749 17.573578 22.556641 17.705078 L 22.267578 18.269531 C 22.538107 18.560231 22.849064 18.81615 23.191406 19.03125 L 23.757812 18.6875 C 23.910843 18.7715 24.069049 18.845756 24.232422 18.910156 L 24.285156 19.53125 C 24.676731 19.65595 25.083217 19.732712 25.496094 19.757812 L 25.798828 19.203125 L 25.810547 19.203125 C 25.984635 19.203125 26.157906 19.184156 26.330078 19.160156 L 26.710938 19.679688 C 27.116218 19.604686 27.508286 19.480547 27.878906 19.310547 L 27.84375 18.681641 C 27.997479 18.600641 28.145927 18.509256 28.287109 18.410156 L 28.890625 18.679688 C 29.20251 18.427488 29.478212 18.137559 29.708984 17.818359 L 29.341797 17.291016 C 29.430957 17.147716 29.509677 16.998603 29.578125 16.845703 L 30.246094 16.794922 C 30.379766 16.429922 30.461302 16.048864 30.488281 15.664062 L 29.894531 15.382812 L 29.894531 15.371094 L 29.894531 15.347656 C 29.891731 15.191056 29.878919 15.034006 29.855469 14.878906 L 30.412109 14.525391 C 30.332709 14.146991 30.199986 13.779494 30.017578 13.433594 L 29.34375 13.470703 C 29.25596 13.327903 29.159562 13.191447 29.052734 13.060547 L 29.339844 12.498047 C 29.069434 12.206747 28.760426 11.949975 28.417969 11.734375 L 27.851562 12.078125 C 27.698 11.994125 27.537075 11.918416 27.373047 11.853516 L 27.324219 11.234375 C 26.933217 11.109975 26.525553 11.033114 26.113281 11.007812 z M 18.519531 11.197266 L 18.519531 11.199219 L 18.519531 11.208984 C 17.587275 11.180984 16.810206 11.857563 16.777344 12.726562 C 16.745124 13.595664 17.470143 14.313709 18.402344 14.349609 C 19.334472 14.378609 20.111602 13.707291 20.146484 12.837891 L 20.146484 12.828125 L 20.146484 12.818359 C 20.176224 11.948859 19.451622 11.231466 18.519531 11.197266 z M 18.314453 12.203125 L 18.875 12.365234 L 19.013672 12.929688 L 18.666016 13.261719 L 18.591797 13.333984 L 18.033203 13.169922 L 17.894531 12.605469 L 18.314453 12.203125 z M 18.412109 12.603516 L 18.291016 12.722656 L 18.332031 12.886719 L 18.494141 12.933594 L 18.615234 12.816406 L 18.576172 12.650391 L 18.412109 12.603516 z M 25.792969 12.970703 C 27.213789 12.960703 28.369868 14.031069 28.376953 15.355469 L 28.376953 15.371094 C 28.376746 16.694894 27.22673 17.768331 25.806641 17.769531 C 24.387243 17.769531 23.234624 16.700053 23.230469 15.376953 C 23.225669 14.053153 24.372863 12.976403 25.792969 12.970703 z M 26.068359 14.523438 L 25.285156 14.748047 L 25.087891 15.539062 L 25.671875 16.103516 L 25.8125 16.064453 L 26.457031 15.880859 L 26.654297 15.089844 L 26.068359 14.523438 z M 25.927734 15.082031 L 25.927734 15.083984 L 26.097656 15.248047 L 26.041016 15.480469 L 25.8125 15.544922 L 25.642578 15.378906 L 25.699219 15.150391 L 25.927734 15.082031 z "
         transform="translate(-0.36448175,1010.2544)"
         id="path702" />
    </g>
  </g>
</svg>
