<?xml version="1.0" encoding="UTF-8" standalone="no"?>
<!-- Created with Inkscape (http://www.inkscape.org/) -->

<svg
   width="11.443307mm"
   height="11.238707mm"
   viewBox="0 0 11.443307 11.238707"
   version="1.1"
   id="svg1"
   inkscape:version="1.4 (86a8ad7, 2024-10-11)"
   sodipodi:docname="github.svg"
   xmlns:inkscape="http://www.inkscape.org/namespaces/inkscape"
   xmlns:sodipodi="http://sodipodi.sourceforge.net/DTD/sodipodi-0.dtd"
   xmlns="http://www.w3.org/2000/svg"
   xmlns:svg="http://www.w3.org/2000/svg">
  <sodipodi:namedview
     id="namedview1"
     pagecolor="#ffffff"
     bordercolor="#666666"
     borderopacity="1.0"
     inkscape:showpageshadow="2"
     inkscape:pageopacity="0.0"
     inkscape:pagecheckerboard="0"
     inkscape:deskcolor="#d1d1d1"
     inkscape:document-units="mm"
     inkscape:zoom="11.84265"
     inkscape:cx="28.667571"
     inkscape:cy="23.347815"
     inkscape:window-width="2560"
     inkscape:window-height="1377"
     inkscape:window-x="2552"
     inkscape:window-y="96"
     inkscape:window-maximized="1"
     inkscape:current-layer="layer1" />
  <defs
     id="defs1" />
  <g
     inkscape:label="Capa 1"
     inkscape:groupmode="layer"
     id="layer1"
     transform="translate(-231.24583,-210.87288)">
    <path
       id="path3"
       style="fill:#252928;fill-opacity:1;stroke:#ff1918;stroke-width:0.00886677;stroke-linecap:round;stroke-linejoin:round"
       d="m 236.96774,210.87734 a 5.7171815,5.7171815 0 0 0 -5.71748,5.71697 5.7171815,5.7171815 0 0 0 4.22972,5.51284 c 0.18092,-0.008 0.24236,-0.14074 0.24236,-0.25942 v -0.85834 c -1.40692,0.30474 -1.70635,-0.6656 -1.70635,-0.6656 -0.095,-0.31543 -0.30069,-0.58594 -0.5793,-0.76171 -0.4622,-0.31488 0.0357,-0.30489 0.0357,-0.30489 0.32305,0.0418 0.6093,0.22886 0.77721,0.50798 0.29361,0.52213 0.95303,0.71027 1.47795,0.42168 0.0231,-0.25746 0.1364,-0.49849 0.31988,-0.68058 -1.08694,-0.11173 -2.29547,-0.54889 -2.29547,-2.48408 -0.0147,-0.50701 0.16709,-1.00009 0.50746,-1.37615 -0.15455,-0.43717 -0.13625,-0.91687 0.0512,-1.341 0,0 0.4267,-0.13707 1.39682,0.50798 0.83169,-0.22356 1.70768,-0.22356 2.53938,0 0.72758,-0.49143 1.14969,-0.53162 1.31516,-0.5209 0.0552,0.004 0.0816,0.0129 0.0816,0.0129 0.18724,0.42419 0.20536,0.90389 0.0506,1.341 0.34056,0.37598 0.52258,0.86907 0.50798,1.37614 0,1.94022 -1.18865,2.36696 -2.3213,2.49391 0.24684,0.24816 0.37456,0.5908 0.35036,0.93999 v 1.39165 c 0,0.11433 0.0585,0.24414 0.22738,0.25838 a 5.7171815,5.7171815 0 0 0 4.2261,-5.51181 5.7171815,5.7171815 0 0 0 -5.71697,-5.71697 z" />
  </g>
</svg>
