<?xml version="1.0" encoding="UTF-8" standalone="no"?>
<svg
   xmlns:dc="http://purl.org/dc/elements/1.1/"
   xmlns:cc="http://creativecommons.org/ns#"
   xmlns:rdf="http://www.w3.org/1999/02/22-rdf-syntax-ns#"
   xmlns:svg="http://www.w3.org/2000/svg"
   xmlns="http://www.w3.org/2000/svg"
   xmlns:sodipodi="http://sodipodi.sourceforge.net/DTD/sodipodi-0.dtd"
   xmlns:inkscape="http://www.inkscape.org/namespaces/inkscape"
   width="12mm"
   height="12mm"
   viewBox="0 0 42.519685 42.519685"
   id="svg_email"
   version="1.1"
   inkscape:version="0.91 r13725"
   sodipodi:docname="email.svg">
  <defs
     id="defs6670" />
  <sodipodi:namedview
     id="base"
     pagecolor="#ffffff"
     bordercolor="#666666"
     borderopacity="1.0"
     inkscape:pageopacity="0.0"
     inkscape:pageshadow="2"
     inkscape:zoom="3.959798"
     inkscape:cx="-32.97557"
     inkscape:cy="51.95127"
     inkscape:document-units="px"
     inkscape:current-layer="layer1"
     showgrid="false"
     inkscape:window-width="1366"
     inkscape:window-height="705"
     inkscape:window-x="-8"
     inkscape:window-y="-8"
     inkscape:window-maximized="1" />
  <metadata
     id="metadata6673">
    <rdf:RDF>
      <cc:Work
         rdf:about="">
        <dc:format>image/svg+xml</dc:format>
        <dc:type
           rdf:resource="http://purl.org/dc/dcmitype/StillImage" />
        <dc:title></dc:title>
      </cc:Work>
    </rdf:RDF>
  </metadata>
  <g
     inkscape:label="Capa 1"
     inkscape:groupmode="layer"
     id="layer1"
     transform="translate(0,-1009.8425)">
    <path
       style="fill:#252928;fill-opacity:1;fill-rule:evenodd;stroke:none"
       d="M 21.212891 1.2851562 C 10.016834 1.2851562 0.93945312 10.365 0.93945312 21.5625 C 0.93945312 32.7572 10.016834 41.832031 21.212891 41.832031 C 32.408947 41.832031 41.486328 32.7572 41.486328 21.5625 C 41.486328 10.365 32.408947 1.2851563 21.212891 1.2851562 z M 9.2 15.5 C 9.2 14.4 10.1 13.5 11.2 13.5 L 31.2 13.5 C 32.3 13.5 33.2 14.4 33.2 15.5 L 33.2 27.5 C 33.2 28.6 32.3 29.5 31.2 29.5 L 11.2 29.5 C 10.1 29.5 9.2 28.6 9.2 27.5 z M 9.2 15.5 L 21.2 24 L 33.2 15.5 L 33.2 17.5 L 21.2 26 L 9.2 17.5 z"
       transform="translate(0,1009.8425)"
       id="path_email_icon" />
  </g>
</svg>
