<?xml version="1.0" encoding="UTF-8" standalone="no"?>
<!-- Created with Inkscape (http://www.inkscape.org/) -->

<svg
   xmlns:dc="http://purl.org/dc/elements/1.1/"
   xmlns:cc="http://creativecommons.org/ns#"
   xmlns:rdf="http://www.w3.org/1999/02/22-rdf-syntax-ns#"
   xmlns:svg="http://www.w3.org/2000/svg"
   xmlns="http://www.w3.org/2000/svg"
   xmlns:sodipodi="http://sodipodi.sourceforge.net/DTD/sodipodi-0.dtd"
   xmlns:inkscape="http://www.inkscape.org/namespaces/inkscape"
   width="50"
   height="50"
   viewBox="0 0 50 50"
   id="svg7946"
   version="1.1"
   inkscape:version="0.91 r13725"
   sodipodi:docname="perfil.svg">
  <defs
     id="defs7948" />
  <sodipodi:namedview
     id="base"
     pagecolor="#ffffff"
     bordercolor="#666666"
     borderopacity="1.0"
     inkscape:pageopacity="0.0"
     inkscape:pageshadow="2"
     inkscape:zoom="1.979899"
     inkscape:cx="121.64596"
     inkscape:cy="90.360722"
     inkscape:document-units="px"
     inkscape:current-layer="layer1"
     showgrid="false"
     inkscape:window-width="1366"
     inkscape:window-height="705"
     inkscape:window-x="-8"
     inkscape:window-y="-8"
     inkscape:window-maximized="1"
     units="px" />
  <metadata
     id="metadata7951">
    <rdf:RDF>
      <cc:Work
         rdf:about="">
        <dc:format>image/svg+xml</dc:format>
        <dc:type
           rdf:resource="http://purl.org/dc/dcmitype/StillImage" />
        <dc:title></dc:title>
      </cc:Work>
    </rdf:RDF>
  </metadata>
  <g
     inkscape:label="Capa 1"
     inkscape:groupmode="layer"
     id="layer1"
     transform="translate(0,-1002.3622)">
    <path
       d="m 25.324662,1003.1227 c 13.331364,0 24.137927,10.8066 24.137927,24.1394 0,13.3299 -10.806563,24.138 -24.137927,24.138 -13.332828,0 -24.1393903,-10.8081 -24.1393903,-24.138 0,-13.3328 10.8065623,-24.1394 24.1393903,-24.1394"
       style="fill:#252928;fill-opacity:1;fill-rule:nonzero;stroke:none"
       id="path174"
       inkscape:connector-curvature="0" />
    <path
       d="m 37.262992,1036.3801 c 0,-2.2641 -0.106967,-4.4213 -2.265585,-4.6381 -7.113088,-1.0763 -6.587331,-4.2045 -6.69424,-5.0657 2.202611,-1.2141 3.030055,-6.2534 3.030055,-6.2534 0,-5.1741 -2.262656,-8.1939 -6.25196,-8.1939 -3.990769,0 -6.468707,2.803 -6.468707,7.548 0,5.325 3.170648,6.7148 3.170648,6.7148 0,3.5572 -3.170648,4.6058 -6.29736,5.5739 -3.123784,0.9709 -1.832092,4.3144 -1.832092,4.3144 0,0 2.753264,3.4973 11.386505,3.4973 8.633241,0 12.222736,-3.4973 12.222736,-3.4973"
       style="fill:#ffffff;fill-opacity:1;fill-rule:nonzero;stroke:none"
       id="path178"
       inkscape:connector-curvature="0" />
  </g>
</svg>
