<?xml version="1.0" encoding="UTF-8" standalone="no"?>
<svg
   xmlns:dc="http://purl.org/dc/elements/1.1/"
   xmlns:cc="http://creativecommons.org/ns#"
   xmlns:rdf="http://www.w3.org/1999/02/22-rdf-syntax-ns#"
   xmlns:svg="http://www.w3.org/2000/svg"
   xmlns="http://www.w3.org/2000/svg"
   xmlns:sodipodi="http://sodipodi.sourceforge.net/DTD/sodipodi-0.dtd"
   xmlns:inkscape="http://www.inkscape.org/namespaces/inkscape"
   width="12mm"
   height="12mm"
   viewBox="0 0 42.519685 42.519685"
   id="svg_ubicacion"
   version="1.1"
   inkscape:version="0.91 r13725"
   sodipodi:docname="ubicacion.svg">
  <defs
     id="defs6670" />
  <sodipodi:namedview
     id="base"
     pagecolor="#ffffff"
     bordercolor="#666666"
     borderopacity="1.0"
     inkscape:pageopacity="0.0"
     inkscape:pageshadow="2"
     inkscape:zoom="3.959798"
     inkscape:cx="-32.97557"
     inkscape:cy="51.95127"
     inkscape:document-units="px"
     inkscape:current-layer="layer1"
     showgrid="false"
     inkscape:window-width="1366"
     inkscape:window-height="705"
     inkscape:window-x="-8"
     inkscape:window-y="-8"
     inkscape:window-maximized="1" />
  <metadata
     id="metadata6673">
    <rdf:RDF>
      <cc:Work
         rdf:about="">
        <dc:format>image/svg+xml</dc:format>
        <dc:type
           rdf:resource="http://purl.org/dc/dcmitype/StillImage" />
        <dc:title></dc:title>
      </cc:Work>
    </rdf:RDF>
  </metadata>
  <g
     inkscape:label="Capa 1"
     inkscape:groupmode="layer"
     id="layer1"
     transform="translate(0,-1009.8425)">
    <path
       style="fill:#252928;fill-opacity:1;fill-rule:evenodd;stroke:none"
       d="M 21.212891 1.2851562 C 10.016834 1.2851562 0.93945312 10.365 0.93945312 21.5625 C 0.93945312 32.7572 10.016834 41.832031 21.212891 41.832031 C 32.408947 41.832031 41.486328 32.7572 41.486328 21.5625 C 41.486328 10.365 32.408947 1.2851563 21.212891 1.2851562 z M 21.21 11 A 7.7 7.7 0 0 0 13.51 18.7 C 13.51 25 19.3 32.5 21.21 35 C 23.1 32.5 28.92 25 28.92 18.7 A 7.7 7.7 0 0 0 21.21 11 z M 21.21 21 A 3 3 0 1 1 21.21 15 A 3 3 0 1 1 21.21 21 z"
       transform="translate(0,1009.8425)"
       id="path_pin_ubicacion" />
  </g>
</svg>
