<?xml version="1.0" encoding="UTF-8" standalone="no"?>
<!-- Created with Inkscape (http://www.inkscape.org/) -->

<svg
   xmlns:dc="http://purl.org/dc/elements/1.1/"
   xmlns:cc="http://creativecommons.org/ns#"
   xmlns:rdf="http://www.w3.org/1999/02/22-rdf-syntax-ns#"
   xmlns:svg="http://www.w3.org/2000/svg"
   xmlns="http://www.w3.org/2000/svg"
   xmlns:sodipodi="http://sodipodi.sourceforge.net/DTD/sodipodi-0.dtd"
   xmlns:inkscape="http://www.inkscape.org/namespaces/inkscape"
   width="12mm"
   height="12mm"
   viewBox="0 0 42.519685 42.519685"
   id="svg6668"
   version="1.1"
   inkscape:version="0.91 r13725"
   sodipodi:docname="software.svg">
  <defs
     id="defs6670" />
  <sodipodi:namedview
     id="base"
     pagecolor="#ffffff"
     bordercolor="#666666"
     borderopacity="1.0"
     inkscape:pageopacity="0.0"
     inkscape:pageshadow="2"
     inkscape:zoom="3.959798"
     inkscape:cx="16.774443"
     inkscape:cy="43.64185"
     inkscape:document-units="px"
     inkscape:current-layer="layer1"
     showgrid="false"
     inkscape:window-width="1366"
     inkscape:window-height="705"
     inkscape:window-x="-8"
     inkscape:window-y="-8"
     inkscape:window-maximized="1" />
  <metadata
     id="metadata6673">
    <rdf:RDF>
      <cc:Work
         rdf:about="">
        <dc:format>image/svg+xml</dc:format>
        <dc:type
           rdf:resource="http://purl.org/dc/dcmitype/StillImage" />
        <dc:title></dc:title>
      </cc:Work>
    </rdf:RDF>
  </metadata>
  <g
     inkscape:label="Capa 1"
     inkscape:groupmode="layer"
     id="layer1"
     transform="translate(0,-1009.8425)">
    <path
       d="m 21.066966,1011.2847 c 11.138505,0 20.165444,9.0283 20.165444,20.1641 0,11.1357 -9.026939,20.164 -20.165444,20.164 -11.1371149,0 -20.16405457,-9.0283 -20.16405457,-20.164 0,-11.1358 9.02693967,-20.1641 20.16405457,-20.1641"
       style="fill:#252928;fill-opacity:1;fill-rule:nonzero;stroke:none"
       id="path720"
       inkscape:connector-curvature="0" />
    <path
       d="m 25.403453,1040.4127 -0.855739,0 c 0.05557,-0.1044 0.09308,-0.2167 0.09308,-0.3403 0,-0.4015 -0.32507,-0.7335 -0.730713,-0.7335 l -4.281476,0 c -0.402864,0 -0.732101,0.332 -0.732101,0.7335 0,0.1236 0.04168,0.2362 0.09307,0.3403 l -0.798783,0 c -0.51261,0 -0.927977,0.4154 -0.927977,0.9267 0,0.5167 0.415367,0.9321 0.927977,0.9321 l 7.211272,0 c 0.514,0 0.929367,-0.4154 0.929367,-0.9321 0.0014,-0.5113 -0.415367,-0.9267 -0.927978,-0.9267"
       style="fill:#ffffff;fill-opacity:1;fill-rule:nonzero;stroke:none"
       id="path724"
       inkscape:connector-curvature="0" />
    <path
       d="m 27.346093,1036.0309 -12.044255,0 c -1.704533,0.033 -2.240759,-0.596 -2.232424,-2.0671 l 0,-7.103 c 0.08752,-1.6657 0.652918,-2.0449 2.232424,-2.0671 l 12.045644,0 c 1.990706,-0.011 2.24076,0.6848 2.235203,2.0671 l 0,7.103 c 0.06807,1.6017 -0.655697,2.1323 -2.236592,2.0671 m 1.855954,-13.4975 -15.670033,0 c -1.601733,0 -2.904791,1.2975 -2.904791,2.9021 l 0,9.9549 c 0,1.6059 1.301668,2.9062 2.904791,2.9062 l 15.670033,0 c 1.605901,0 2.904791,-1.3003 2.904791,-2.9062 l 0,-9.9549 c 0,-1.6046 -1.29889,-2.9021 -2.904791,-2.9021"
       style="fill:#ffffff;fill-opacity:1;fill-rule:nonzero;stroke:none"
       id="path728"
       inkscape:connector-curvature="0" />
  </g>
</svg>
