<?xml version="1.0" encoding="UTF-8" standalone="no"?>
<svg
   width="12mm"
   height="12mm"
   viewBox="0 0 42.519685 42.519685"
   id="svg_telefono"
   version="1.1"
   inkscape:version="1.4 (86a8ad7, 2024-10-11)"
   sodipodi:docname="tlf.svg"
   xmlns:inkscape="http://www.inkscape.org/namespaces/inkscape"
   xmlns:sodipodi="http://sodipodi.sourceforge.net/DTD/sodipodi-0.dtd"
   xmlns="http://www.w3.org/2000/svg"
   xmlns:svg="http://www.w3.org/2000/svg"
   xmlns:rdf="http://www.w3.org/1999/02/22-rdf-syntax-ns#"
   xmlns:cc="http://creativecommons.org/ns#"
   xmlns:dc="http://purl.org/dc/elements/1.1/">
  <defs
     id="defs6670" />
  <sodipodi:namedview
     id="base"
     pagecolor="#ffffff"
     bordercolor="#666666"
     borderopacity="1.0"
     inkscape:pageopacity="0.0"
     inkscape:pageshadow="2"
     inkscape:zoom="3.959798"
     inkscape:cx="-32.956227"
     inkscape:cy="51.896587"
     inkscape:document-units="px"
     inkscape:current-layer="layer1"
     showgrid="false"
     inkscape:window-width="2560"
     inkscape:window-height="1377"
     inkscape:window-x="2552"
     inkscape:window-y="96"
     inkscape:window-maximized="1"
     inkscape:showpageshadow="2"
     inkscape:pagecheckerboard="0"
     inkscape:deskcolor="#d1d1d1" />
  <metadata
     id="metadata6673">
    <rdf:RDF>
      <cc:Work
         rdf:about="">
        <dc:format>image/svg+xml</dc:format>
        <dc:type
           rdf:resource="http://purl.org/dc/dcmitype/StillImage" />
      </cc:Work>
    </rdf:RDF>
  </metadata>
  <g
     inkscape:label="Capa 1"
     inkscape:groupmode="layer"
     id="layer1"
     transform="translate(0,-1009.8425)">
    <path
       id="path_telefono-4"
       style="fill:#252928;fill-opacity:1;fill-rule:evenodd;stroke:none"
       d="m 21.259841,1010.8289 c -11.196057,0 -20.27343606,9.0796 -20.27343606,20.2771 0,11.1947 9.07737906,20.2698 20.27343606,20.2698 11.196056,0 20.273438,-9.0751 20.273438,-20.2698 0,-11.1975 -9.077382,-20.2771 -20.273438,-20.2771 z m -5.92163,9.6204 c 0.06015,0 0.120981,0 0.181274,0 0.4824,0.017 0.959359,0.1956 1.268921,0.5292 l 2.481079,2.6641 c 0.619977,0.6664 0.572887,1.9531 -0.09338,2.5727 l -1.99768,1.8622 c 1.170307,3.2622 3.647549,5.9257 6.817016,7.3278 l 1.997681,-1.8603 c 0.666397,-0.6197 1.954703,-0.573 2.574463,0.093 l 2.479248,2.666 c 0.619941,0.6663 0.574817,1.9528 -0.09155,2.5726 l -2.666016,2.4811 c -1.975929,1.2168 -5.787666,-0.2118 -11.367187,-6.2091 -5.579452,-5.9974 -6.72637,-9.9017 -5.370483,-11.7847 l 2.664184,-2.4792 c 0.291515,-0.2712 0.701354,-0.416 1.122437,-0.4358 z" />
  </g>
</svg>
